

[IMG]http://i693.photobucket.com/albums/vv296/schizopolis/patrick/patrick.jpg[/IMG]




[b][i][color=red]
Director:
Richard Franklin
Writers:
Everett De Roche (screenplay)
Runtime:
122 min
Country:
Australia
Language:
English
Color:
Color
Genre:
Horror | Sci-Fi | Thriller

 
Susan Penhaligon ... Kathy Jacquard
Robert Helpmann ... Doctor Roget
Rod Mullinar ... Ed Jacquard
Bruce Barry ... Brian Wright
Julia Blake ... Matron Cassidy
Helen Hemingway ... Sister Williams
María Mercedes ... Nurse Panicale (as Maria Mercedes)
Walter Pym ... Captain Fraser
Frank Wilson ... Detective Sgt. Grant
Carole-Ann Aylett ... Patrick's Mother
Paul Young ... Lover
Marilyn Rodgers ... Day Desk Nurse
Peggy Nichols ... Night Desk Nurse
John Murphy ... Barman
Ray Chubb ... S.E.C. Worker[/color][/i][/b]




[IMG]http://img716.imageshack.us/img716/8577/49c9a62e8167ec633a6124e.jpg[/IMG]



[b][i][color=red]After the shocking bathtub death of his mother and her lover, the sinister Patrick lays comatose in a small private hospital, his only action being his involuntary spitting. When a pretty young nurse, just separated from her husband, begins work at the hospital, she senses that Patrick is communicating with her, and he seems to be using his psychic powers to manipulate events in her life.
[/color][/i][/b]




[IMG]http://img264.imageshack.us/img264/6073/vlcsnap2010102516h47m03.png[/IMG]
[IMG]http://img529.imageshack.us/img529/5517/vlcsnap2010102516h45m45.png[/IMG]
[IMG]http://img529.imageshack.us/img529/5215/vlcsnap2010102516h45m21.png[/IMG]
[IMG]http://img196.imageshack.us/img196/4185/vlcsnap2010102516h45m13.png[/IMG]
[IMG]http://img153.imageshack.us/img153/4599/vlcsnap2010102516h48m12.png[/IMG]




[CODE]
General
Complete name                    Patrick (1978).avi
Format                           : AVI
Format/Info                      : Audio Video Interleave
File size                        : 727 MiB
Duration                         : 1h 47mn
Overall bit rate                 : 942 Kbps
Writing application              : Lavf51.12.1

Video
ID                               : 0
Format                           : MPEG-4 Visual
Format profile                   : Simple@L1
Format settings, BVOP            : No
Format settings, QPel            : No
Format settings, GMC             : No warppoints
Format settings, Matrix          : Default (H.263)
Codec ID                         : DX50
Codec ID/Hint                    : DivX 5
Duration                         : 1h 47mn
Bit rate                         : 802 Kbps
Width                            : 608 pixels
Height                           : 352 pixels
Display aspect ratio             : 16:9
Frame rate                       : 25.000 fps
Resolution                       : 8 bits
Colorimetry                      : 4:2:0
Scan type                        : Progressive
Bits/(Pixel*Frame)               : 0.150
Stream size                      : 618 MiB (85%)
Writing library                  : Lavc51.40.4

Audio
ID                               : 1
Format                           : MPEG Audio
Format version                   : Version 1
Format profile                   : Layer 3
Mode                             : Joint stereo
Format_Settings_ModeExtension    : MS Stereo
Codec ID                         : 55
Codec ID/Hint                    : MP3
Duration                         : 1h 47mn
Bit rate mode                    : Constant
Bit rate                         : 128 Kbps
Channel(s)                       : 2 channels
Sampling rate                    : 48.0 KHz
Stream size                      : 98.8 MiB (14%)
Alignment                        : Aligned on interleaves
Interleave, duration             : 24 ms (0.60 video frame)
Interleave, preload duration     : 24 ms[/CODE]



[b][i][color=red]was requested
not my rip, thanks to the ripper
20 kbs 24/7 if everything goes.. be patient[/color][/i][/b]



[IMG]http://i693.photobucket.com/albums/vv296/schizopolis/patrick/patrick14.jpg[/IMG]